<svg xmlns="http://www.w3.org/2000/svg" viewBox="0 0 64 64" fill="none">
  <rect width="64" height="64" rx="16" fill="#0B0F14"/>
  <path d="M18 14H33.5C42.1 14 47 18.2 47 25.2C47 30.2 44.3 33.7 39.7 35.3L47.5 50H38.2L31 36.9H25.3V50H18V14ZM25.3 20V31.1H32.1C36.1 31.1 38.4 29.3 38.4 25.6C38.4 21.9 36.1 20 32.1 20H25.3Z" fill="#F97316"/>
  <path d="M18 14H33.5C42.1 14 47 18.2 47 25.2C47 30.2 44.3 33.7 39.7 35.3L47.5 50H38.2L31 36.9H25.3V50H18V14ZM25.3 20V31.1H32.1C36.1 31.1 38.4 29.3 38.4 25.6C38.4 21.9 36.1 20 32.1 20H25.3Z" stroke="#FFD7B5" stroke-width="1.2" stroke-linejoin="round"/>
  <path d="M12 52H52" stroke="#2A3442" stroke-width="2" stroke-linecap="round"/>
  <style>
    @media (prefers-color-scheme: light) {
      rect { fill: #F7F8FA; }
      path:first-of-type { fill: #EA580C; }
      path:nth-of-type(2) { stroke: #7C2D12; }
      path:last-of-type { stroke: #D7DDE5; }
    }
  </style>
</svg>
